<svg
  width="100%"
  height="100%"
  id="svg"
  viewBox="0 0 1440 700"
  xmlns="http://www.w3.org/2000/svg"
  class="transition duration-300 ease-in-out delay-150"
>
  <defs>
    <linearGradient id="gradient" x1="0%" y1="50%" x2="100%" y2="50%">
      <stop offset="5%" stop-color="#002bdc"></stop>
      <stop offset="95%" stop-color="#32ded4"></stop>
    </linearGradient>
  </defs>
  <path
    d="M 0,700 C 0,700 0,233 0,233 C 59.03744417725869,197.77430436276194 118.07488835451738,162.54860872552388 195,149 C 271.9251116454826,135.45139127447612 366.7378907591892,143.57986946066643 444,159 C 521.2621092408108,174.42013053933357 580.9735486087255,197.1319134318104 646,204 C 711.0264513912745,210.8680865681896 781.3679148059086,201.89247681209207 846,195 C 910.6320851940914,188.10752318790793 969.55479216764,183.29817931982137 1024,177 C 1078.44520783236,170.70182068017863 1128.4129165235315,162.91480590862244 1197,172 C 1265.5870834764685,181.08519409137756 1352.7935417382341,207.04259704568878 1440,233 C 1440,233 1440,700 1440,700 Z"
    stroke="none"
    stroke-width="0"
    fill="url(#gradient)"
    fill-opacity="0.53"
    class="transition-all duration-300 ease-in-out delay-150 path-0"
    transform="rotate(-180 720 350)"
  ></path>
  <defs>
    <linearGradient id="gradient" x1="0%" y1="50%" x2="100%" y2="50%">
      <stop offset="5%" stop-color="#002bdc"></stop>
      <stop offset="95%" stop-color="#32ded4"></stop>
    </linearGradient>
  </defs>
  <path
    d="M 0,700 C 0,700 0,466 0,466 C 71.21813809687393,426.7323943661972 142.43627619374786,387.46478873239437 217,402 C 291.56372380625214,416.53521126760563 369.47303332188255,484.87323943661966 427,502 C 484.52696667811745,519.1267605633803 521.6715905187222,485.04225352112684 594,457 C 666.3284094812778,428.95774647887316 773.8406046032292,406.9577464788732 841,417 C 908.1593953967708,427.0422535211268 934.9659910683615,469.12676056338034 991,499 C 1047.0340089316385,528.8732394366197 1132.2954311233254,546.5352112676056 1212,539 C 1291.7045688766746,531.4647887323944 1365.8522844383374,498.7323943661972 1440,466 C 1440,466 1440,700 1440,700 Z"
    stroke="none"
    stroke-width="0"
    fill="url(#gradient)"
    fill-opacity="1"
    class="transition-all duration-300 ease-in-out delay-150 path-1"
    transform="rotate(-180 720 350)"
  ></path>
</svg>
